<?xml version="1.0" standalone="no"?><!DOCTYPE svg PUBLIC "-//W3C//DTD SVG 1.1//EN" "http://www.w3.org/Graphics/SVG/1.1/DTD/svg11.dtd"><svg t="1501943719356" class="icon" style="" viewBox="0 0 1024 1024" version="1.1" xmlns="http://www.w3.org/2000/svg" p-id="13837" xmlns:xlink="http://www.w3.org/1999/xlink" width="200" height="200"><defs><style type="text/css"></style></defs><path d="M846.8 628.8c-9.5-9.5-14.9-22.4-14.9-35.9L831.9 382.5l0 0C831.1 206.5 688.1 64 511.9 64S192.7 206.5 191.9 382.5l0 213.7c0 11.4-4.5 22.3-12.6 30.4L118 688.1c-10.2 10.2-15.9 24-15.9 38.4l0 9.5c0 17.7 14.3 32 32 32L890 768c17.7 0 32-14.3 32-32l0-9.5c0-14.4-5.7-28.3-15.9-38.5L846.8 628.8zM192.3 704.1l50.6-50.6c8-8 12.6-18.9 12.6-30.3l0.4-240.5C256.6 241.8 371 128 511.9 128s255.3 113.9 256 254.6l0 0 0.4 237.4c0 13.4 5.4 26.3 14.8 35.8l48.4 48.4L192.3 704.2z" p-id="13838" fill="#1296db"></path><path d="M511 960c-74.7 0-137.5-51.4-155.1-120.7-5.1-19.9 9.9-39.3 30.5-39.3l1.1 0c14.5 0 26.9 10 30.6 24 4.2 16.4 12.8 31.4 25.2 43.8C461.4 886 485.5 896 511 896s49.6-10 67.8-28.2c12.4-12.4 20.9-27.4 25.2-43.8 3.6-14 16.1-24 30.6-24l1.1 0c20.6 0 35.5 19.4 30.5 39.3C648.5 908.6 585.7 960 511 960z" p-id="13839" fill="#1296db"></path></svg>