<?xml version="1.0" standalone="no"?><!DOCTYPE svg PUBLIC "-//W3C//DTD SVG 1.1//EN" "http://www.w3.org/Graphics/SVG/1.1/DTD/svg11.dtd"><svg t="1501943444841" class="icon" style="" viewBox="0 0 1024 1024" version="1.1" xmlns="http://www.w3.org/2000/svg" p-id="13330" xmlns:xlink="http://www.w3.org/1999/xlink" width="200" height="200"><defs><style type="text/css"></style></defs><path d="M665.000003 601.5C710.333551 617.166746 751.249809 639.083193 787.749999 667.25 824.25019 695.416808 855.249875 727.999815 880.749991 765.000001 906.250129 802.000186 925.833261 842.49978 939.50001 886.5 953.166737 930.500221 960 976.333096 960 1024L896 1024C896 969.333061 886.250095 918.583568 866.749997 871.749999 847.249898 824.916433 820.333501 784.333506 786.000006 750.000001 751.666488 715.666494 711.083565 688.750098 664.24999 669.249999 617.416437 649.749902 566.66693 640 512 640 476.333145 640 442.000161 644.499955 409.000003 653.5 375.999844 662.500045 345.250148 675.249918 316.750002 691.749999 288.249856 708.250083 262.416785 728.083218 239.250009 751.25 216.083211 774.416782 196.25009 800.249858 179.749999 828.75 163.249909 857.250141 150.50004 887.999835 141.499993 921.000001 132.499946 954.000166 128 988.333154 128 1024L64 1024C64 975.99976 70.99993 930.083553 84.999992 886.25 99.000075 842.416449 118.833197 802.166851 144.500001 765.5 170.166784 728.833151 201.249814 696.500139 237.750005 668.499999 274.250173 640.499859 314.999786 618.333416 360 602.000001 333.999861 587.999931 310.666774 571.0001 290.000006 550.999999 269.333237 530.999899 251.750066 508.750122 237.250003 484.250001 222.749919 459.749877 211.583377 433.583474 203.749999 405.75 195.916622 377.916527 192 349.33348 192 320 192 275.666445 200.333245 234.083528 217.000003 195.25 233.66676 156.416472 256.499846 122.500145 285.499993 93.5 314.500141 64.499854 348.416467 41.666749 387.249998 25.000001 426.083528 8.33325 467.666454 0 512 0 556.333546 0 597.916472 8.33325 636.750002 25.000001 675.583533 41.666749 709.499859 64.499854 738.500007 93.5 767.500154 122.500145 790.33324 156.416472 806.999997 195.25 823.666755 234.083528 832 275.666445 832 320 832 349.33348 828.083378 377.833196 820.250001 405.5 812.416623 433.166806 801.250081 459.166544 786.749997 483.500001 772.249934 507.833455 754.750108 530.083232 734.250006 550.25 713.749905 570.416767 690.666785 587.49993 665.000003 601.5L665.000003 601.5ZM256 320C256 355.33351 262.749941 388.499846 276.250001 419.500001 289.750061 450.500156 308.083222 477.583218 331.249998 500.75 354.416774 523.916782 381.499837 542.249933 412.49999 555.749999 443.500166 569.250068 476.666479 576 512 576 547.333521 576 580.499834 569.250068 611.50001 555.749999 642.500163 542.249933 669.583226 523.916782 692.750002 500.75 715.916778 477.583218 734.249939 450.500156 747.749999 419.500001 761.250059 388.499846 768 355.33351 768 320 768 284.66649 761.250059 251.500154 747.749999 220.499999 734.249939 189.499844 715.916778 162.416782 692.750002 139.25 669.583226 116.083218 642.500163 97.750067 611.50001 84.250001 580.499834 70.749932 547.333521 64 512 64 476.666479 64 443.500166 70.749932 412.49999 84.250001 381.499837 97.750067 354.416774 116.083218 331.249998 139.25 308.083222 162.416782 289.750061 189.499844 276.250001 220.499999 262.749941 251.500154 256 284.66649 256 320L256 320Z" p-id="13331" fill="#1296db"></path></svg>